<svg class="diagram-root" style="background: #f5f6f6" xmlns="http://www.w3.org/2000/svg" xmlns:xlink="http://www.w3.org/1999/xlink"><style>.diagram-root { font-family: "Helvetica Neue", sans-serif; font-size: 12px; } .t { overflow: visible; } .t-bg { y: 40; fill: #fff;   } .th { fill: #005aa0;   } .tht { fill: #fff; font-size: 14px;  } .tf { fill: #323c46; overflow: visible; } .tf.pk { fill: #005aa0; font-weight: bold; } .tf.fk { font-weight: bold; } .ty { fill: #adb1b5; font-weight: normal; text-anchor: end; } .r { fill: transparent; stroke: #c3c3c3; stroke-width: 1; } .l { stroke: 1; } .i { fill: #c2c7ce; stroke: #c2c7ce; } .i.ix { fill: #afb3b6; stroke: #000; } .fa { fill: transparent; overflow: visible; } .fa .bg.hover { fill: #f7f7f7; } .c { cy: 12; r: 4; stroke: #d2d2dc; fill: #d2d2dc; } .hr { fill: transparent; stroke: #323c46; stroke-opacity: 0.035; stroke-width: 13; } .dc { stroke: #fa5a3c; fill: #fa5a3c; } .x { stroke: white; stroke-width: 1; } .hl .th { fill: #1b9bff; } .hl .tht {  } .fhl .bg { fill: #e7f4ff; } .fhls .bg {  } .r.hl { stroke: #1b9bff; } .dim { opacity: 0.25; }</style><g class="drawing-wrapper" transform="translate(-33, 7) scale(1,1)"><g class="rs"><path d="M 214.84 293 m -1, 0 a 1,1 0 1,0 2,0 a 1,1 0 1,0 -2,0 M 214.84 293 m -0.5, 0 a 0.5,0.5 0 1,0 1,0 a 0.5,0.5 0 1,0 -1,0  M214.84 293 L214.84 293 226.84 293 M 214.84 299 m -1, 0 a 1,1 0 1,0 2,0 a 1,1 0 1,0 -2,0 M 214.84 299 m -0.5, 0 a 0.5,0.5 0 1,0 1,0 a 0.5,0.5 0 1,0 -1,0  M214.84 299 L214.84 299 221.84 293 214.84 287 M 214.84 287 m -1, 0 a 1,1 0 1,0 2,0 a 1,1 0 1,0 -2,0 M 214.84 287 m -0.5, 0 a 0.5,0.5 0 1,0 1,0 a 0.5,0.5 0 1,0 -1,0  M226.84 293 Q 250.38 293, 273.92 186.5 T 321 80 M 333 80 m -1, 0 a 1,1 0 1,0 2,0 a 1,1 0 1,0 -2,0 M 333 80 m -0.5, 0 a 0.5,0.5 0 1,0 1,0 a 0.5,0.5 0 1,0 -1,0  M333 80 L333 80 321 80 M327 86 L327 86 327 74" id="h1631816722" class="r"></path><path d="M 214.84 318 m -1, 0 a 1,1 0 1,0 2,0 a 1,1 0 1,0 -2,0 M 214.84 318 m -0.5, 0 a 0.5,0.5 0 1,0 1,0 a 0.5,0.5 0 1,0 -1,0  M214.84 318 L214.84 318 226.84 318 M 214.84 324 m -1, 0 a 1,1 0 1,0 2,0 a 1,1 0 1,0 -2,0 M 214.84 324 m -0.5, 0 a 0.5,0.5 0 1,0 1,0 a 0.5,0.5 0 1,0 -1,0  M214.84 324 L214.84 324 221.84 318 214.84 312 M 214.84 312 m -1, 0 a 1,1 0 1,0 2,0 a 1,1 0 1,0 -2,0 M 214.84 312 m -0.5, 0 a 0.5,0.5 0 1,0 1,0 a 0.5,0.5 0 1,0 -1,0  M226.84 318 Q 251.38 318, 275.92 394.5 T 325 471 M 337 471 m -1, 0 a 1,1 0 1,0 2,0 a 1,1 0 1,0 -2,0 M 337 471 m -0.5, 0 a 0.5,0.5 0 1,0 1,0 a 0.5,0.5 0 1,0 -1,0  M337 471 L337 471 325 471 M331 477 L331 477 331 465" id="h561142410" class="r"></path><path d="M 662 291 m -1, 0 a 1,1 0 1,0 2,0 a 1,1 0 1,0 -2,0 M 662 291 m -0.5, 0 a 0.5,0.5 0 1,0 1,0 a 0.5,0.5 0 1,0 -1,0  M662 291 L662 291 650 291 M 662 297 m -1, 0 a 1,1 0 1,0 2,0 a 1,1 0 1,0 -2,0 M 662 297 m -0.5, 0 a 0.5,0.5 0 1,0 1,0 a 0.5,0.5 0 1,0 -1,0  M662 297 L662 297 655 291 662 285 M 662 285 m -1, 0 a 1,1 0 1,0 2,0 a 1,1 0 1,0 -2,0 M 662 285 m -0.5, 0 a 0.5,0.5 0 1,0 1,0 a 0.5,0.5 0 1,0 -1,0  M650 291 Q 619.54 291, 589.08 381 T 528.16 471 M 516.16 471 m -1, 0 a 1,1 0 1,0 2,0 a 1,1 0 1,0 -2,0 M 516.16 471 m -0.5, 0 a 0.5,0.5 0 1,0 1,0 a 0.5,0.5 0 1,0 -1,0  M516.16 471 L516.16 471 528.16 471 M522.16 477 L522.16 477 522.16 465" id="h1359302350" class="r"></path><path d="M 662 316 m -1, 0 a 1,1 0 1,0 2,0 a 1,1 0 1,0 -2,0 M 662 316 m -0.5, 0 a 0.5,0.5 0 1,0 1,0 a 0.5,0.5 0 1,0 -1,0  M662 316 L662 316 650 316 M656 322 L656 322 656 310 M650 316 Q 615.88 316, 581.75 198 T 513.49 80 M 501.49 80 m -1, 0 a 1,1 0 1,0 2,0 a 1,1 0 1,0 -2,0 M 501.49 80 m -0.5, 0 a 0.5,0.5 0 1,0 1,0 a 0.5,0.5 0 1,0 -1,0  M501.49 80 L501.49 80 513.49 80 M507.49 86 L507.49 86 507.49 74" id="h2140253211" class="r"></path><path d="M 501.49 105 m -1, 0 a 1,1 0 1,0 2,0 a 1,1 0 1,0 -2,0 M 501.49 105 m -0.5, 0 a 0.5,0.5 0 1,0 1,0 a 0.5,0.5 0 1,0 -1,0  M501.49 105 L501.49 105 513.49 105 M507.49 111 L507.49 111 507.49 99 M513.49 105 C 563.49 105, 563.508 343, 513.46 343 M 501.46 343 m -1, 0 a 1,1 0 1,0 2,0 a 1,1 0 1,0 -2,0 M 501.46 343 m -0.5, 0 a 0.5,0.5 0 1,0 1,0 a 0.5,0.5 0 1,0 -1,0  M501.46 343 L501.46 343 513.46 343 M507.46 349 L507.46 349 507.46 337" id="h3623755537" class="r"></path><path d="M 662 98 m -1, 0 a 1,1 0 1,0 2,0 a 1,1 0 1,0 -2,0 M 662 98 m -0.5, 0 a 0.5,0.5 0 1,0 1,0 a 0.5,0.5 0 1,0 -1,0  M662 98 L662 98 650 98 M656 104 L656 104 656 92 M650 98 Q 615.88 98, 581.75 89 T 513.49 80 M 501.49 80 m -1, 0 a 1,1 0 1,0 2,0 a 1,1 0 1,0 -2,0 M 501.49 80 m -0.5, 0 a 0.5,0.5 0 1,0 1,0 a 0.5,0.5 0 1,0 -1,0  M501.49 80 L501.49 80 513.49 80 M507.49 86 L507.49 86 507.49 74" id="h53281164" class="r"></path></g><g class="hrs"></g><g class="ts"><svg width="159.84" height="100" x="55" y="236" id="h4086156755" class="t"><rect height="40" width="159.84" class="th"></rect><text x="13" y="25" class="tht">Dept_emp</text><rect height="60" width="159.84" class="t-bg"></rect><text x="13" y="61" class="tf fk">emp_no_id<tspan x="146.84" class="ty">INT</tspan></text><text x="13" y="86" class="tf fk">dep_no_id<tspan x="146.84" class="ty">VARCHAR</tspan></text></svg><svg width="168.49" height="225" x="333" y="23" id="h2421874875" class="t"><rect height="40" width="168.49" class="th"></rect><text x="13" y="25" class="tht">Employee</text><rect height="185" width="168.49" class="t-bg"></rect><text x="13" y="61" class="tf pk">emp_noID<tspan x="155.49" class="ty">INT</tspan></text><path d="M7,14A2,2 0 0,1 5,12A2,2 0 0,1 7,10A2,2 0 0,1 9,12A2,2 0 0,1 7,14M12.65,10C11.83,7.67 9.61,6 7, 6A6, 6 0 0, 0 1, 12A6, 6 0 0, 0 7, 18C9.61, 18 11.83, 16.33 12.65, 14H17V18H21V14H23V10H12.65Z" class="i pk" transform="translate(116.15992187500001, 48) scale(0.65)"></path><text x="13" y="86" class="tf fk">emp_title_id<tspan x="155.49" class="ty">VARCHAR</tspan></text><text x="13" y="111" class="tf">birth_date<tspan x="155.49" class="ty">DATE</tspan></text><text x="13" y="136" class="tf">first_name<tspan x="155.49" class="ty">VARCHAR</tspan></text><text x="13" y="161" class="tf">last_name<tspan x="155.49" class="ty">VARCHAR</tspan></text><text x="13" y="186" class="tf">sex<tspan x="155.49" class="ty">VARCHAR</tspan></text><text x="13" y="211" class="tf">hire_date<tspan x="155.49" class="ty">DATE</tspan></text></svg><svg width="179.16" height="100" x="337" y="414" id="h2876837712" class="t"><rect height="40" width="179.16" class="th"></rect><text x="13" y="25" class="tht">Department</text><rect height="60" width="179.16" class="t-bg"></rect><text x="13" y="61" class="tf pk">dept_noID<tspan x="166.16" class="ty">VARCHAR</tspan></text><path d="M7,14A2,2 0 0,1 5,12A2,2 0 0,1 7,10A2,2 0 0,1 9,12A2,2 0 0,1 7,14M12.65,10C11.83,7.67 9.61,6 7, 6A6, 6 0 0, 0 1, 12A6, 6 0 0, 0 7, 18C9.61, 18 11.83, 16.33 12.65, 14H17V18H21V14H23V10H12.65Z" class="i pk" transform="translate(88.37484375, 48) scale(0.65)"></path><text x="13" y="86" class="tf">dept_name<tspan x="166.16" class="ty">VARCHAR</tspan></text></svg><svg width="163.18" height="100" x="662" y="234" id="h2403958395" class="t"><rect height="40" width="163.18" class="th"></rect><text x="13" y="25" class="tht">Dept_manager</text><rect height="60" width="163.18" class="t-bg"></rect><text x="13" y="61" class="tf fk">dept_no_id<tspan x="150.18" class="ty">VARCHAR</tspan></text><text x="13" y="86" class="tf fk">emp_no_id<tspan x="150.18" class="ty">INT</tspan></text></svg><svg width="154.46" height="100" x="347" y="286" id="h1984824179" class="t"><rect height="40" width="154.46" class="th"></rect><text x="13" y="25" class="tht">Title</text><rect height="60" width="154.46" class="t-bg"></rect><text x="13" y="61" class="tf pk">titleID<tspan x="141.46" class="ty">VARCHAR</tspan></text><path d="M7,14A2,2 0 0,1 5,12A2,2 0 0,1 7,10A2,2 0 0,1 9,12A2,2 0 0,1 7,14M12.65,10C11.83,7.67 9.61,6 7, 6A6, 6 0 0, 0 1, 12A6, 6 0 0, 0 7, 18C9.61, 18 11.83, 16.33 12.65, 14H17V18H21V14H23V10H12.65Z" class="i pk" transform="translate(63.67484375000001, 48) scale(0.65)"></path><text x="13" y="86" class="tf">title<tspan x="141.46" class="ty">VARCHAR</tspan></text></svg><svg width="124.71" height="100" x="662" y="41" id="h3858243705" class="t"><rect height="40" width="124.71" class="th"></rect><text x="13" y="25" class="tht">Salaries</text><rect height="60" width="124.71" class="t-bg"></rect><text x="13" y="61" class="tf fk">emp_no_id<tspan x="111.71" class="ty">INT</tspan></text><text x="13" y="86" class="tf">salary<tspan x="111.71" class="ty">INT</tspan></text></svg></g></g><text class="qdbd-link" x="10" y="20">www.quickdatabasediagrams.com</text></svg>